<svg xmlns="http://www.w3.org/2000/svg" xmlns:xlink="http://www.w3.org/1999/xlink" width="500" zoomAndPan="magnify" viewBox="0 0 375 374.999991" height="500" preserveAspectRatio="xMidYMid meet" version="1.0"><defs><g/><clipPath id="6f612b3437"><path d="M 0 145.226562 L 375 145.226562 L 375 202.742188 L 0 202.742188 Z M 0 145.226562 " clip-rule="nonzero"/></clipPath></defs><rect x="-37.5" width="450" fill="#ffffff" y="-37.499999" height="449.999989" fill-opacity="1"/><rect x="-37.5" width="450" fill="#ffffff" y="-37.499999" height="449.999989" fill-opacity="1"/><rect x="-37.5" width="450" fill="#e6e6e6" y="-37.499999" height="449.999989" fill-opacity="1"/><path stroke-linecap="butt" transform="matrix(0.00471879, -0.750032, 0.749985, 0.00471849, 166.993573, 374.984008)" fill="none" stroke-linejoin="miter" d="M -0.000397064 2.498205 L 499.978309 2.498314 " stroke="#000000" stroke-width="5" stroke-opacity="1" stroke-miterlimit="4"/><g fill="#000000" fill-opacity="1"><g transform="translate(67.426034, 272.181231)"><g><path d="M -10.339844 42.605469 C -7.859375 43.019531 -6.410156 43.429688 -3.101562 43.429688 C 23.578125 43.429688 42.398438 15.304688 42.398438 -14.269531 L 42.398438 -149.320312 C 42.398438 -190.0625 43.636719 -204.75 61.425781 -204.75 L 61.425781 -206.816406 L 5.585938 -206.816406 L 5.585938 -204.75 C 23.371094 -204.75 24.609375 -190.0625 24.609375 -149.320312 L 24.609375 -13.855469 C 24.609375 17.578125 13.648438 40.742188 -6.617188 40.742188 C -7.859375 40.742188 -9.925781 40.535156 -9.925781 40.535156 Z M -10.339844 42.605469 "/></g></g></g><g fill="#000000" fill-opacity="1"><g transform="translate(193.578333, 272.181231)"><g><path d="M 6.203125 -204.75 C 23.992188 -204.75 25.230469 -190.0625 25.230469 -149.320312 L 25.230469 -57.496094 C 25.230469 -16.753906 23.992188 -2.066406 6.203125 -2.066406 L 6.203125 0 L 61.839844 0 L 61.839844 -2.066406 C 44.050781 -2.066406 42.8125 -16.753906 42.8125 -57.496094 L 42.8125 -91 C 51.703125 -87.070312 72.179688 -81.277344 90.378906 -81.277344 C 136.292969 -81.277344 161.109375 -112.714844 161.109375 -146.425781 C 161.109375 -183.238281 136.5 -210.953125 92.445312 -210.953125 C 68.457031 -210.953125 53.773438 -206.816406 31.023438 -206.816406 L 6.203125 -206.816406 Z M 42.8125 -93.066406 L 42.8125 -201.4375 C 55.425781 -205.988281 65.355469 -208.058594 80.660156 -208.058594 C 119.125 -208.058594 143.324219 -183.652344 143.324219 -146.21875 C 143.324219 -121.402344 127.8125 -85.414062 86.65625 -85.414062 C 68.664062 -85.414062 53.359375 -88.722656 42.8125 -93.066406 Z M 42.8125 -93.066406 "/></g></g></g><g clip-path="url(#6f612b3437)"><path fill="#e6e6e6" d="M -27.167969 145.226562 L 466.660156 145.226562 L 466.660156 202.597656 L -27.167969 202.597656 Z M -27.167969 145.226562 " fill-opacity="1" fill-rule="nonzero"/></g><g fill="#000000" fill-opacity="1"><g transform="translate(30.124803, 184.505669)"><g><path d="M 6.171875 0.203125 C 4.859375 0.203125 3.644531 -0.078125 2.53125 -0.640625 C 1.425781 -1.210938 0.53125 -2.019531 -0.15625 -3.0625 L 1.265625 -4.703125 C 2.535156 -2.828125 4.179688 -1.890625 6.203125 -1.890625 C 9.023438 -1.890625 10.4375 -3.566406 10.4375 -6.921875 L 10.4375 -20.75 L 2.09375 -20.75 L 2.09375 -22.84375 L 12.828125 -22.84375 L 12.828125 -7.015625 C 12.828125 -4.617188 12.265625 -2.816406 11.140625 -1.609375 C 10.023438 -0.398438 8.367188 0.203125 6.171875 0.203125 Z M 6.171875 0.203125 "/></g></g></g><g fill="#000000" fill-opacity="1"><g transform="translate(56.864919, 184.505669)"><g><path d="M 13.703125 0.203125 C 11.441406 0.203125 9.390625 -0.300781 7.546875 -1.3125 C 5.710938 -2.332031 4.28125 -3.722656 3.25 -5.484375 C 2.21875 -7.242188 1.703125 -9.222656 1.703125 -11.421875 C 1.703125 -13.617188 2.21875 -15.597656 3.25 -17.359375 C 4.28125 -19.117188 5.710938 -20.503906 7.546875 -21.515625 C 9.390625 -22.523438 11.441406 -23.03125 13.703125 -23.03125 C 15.960938 -23.03125 18 -22.53125 19.8125 -21.53125 C 21.632812 -20.53125 23.066406 -19.144531 24.109375 -17.375 C 25.148438 -15.601562 25.671875 -13.617188 25.671875 -11.421875 C 25.671875 -9.222656 25.148438 -7.238281 24.109375 -5.46875 C 23.066406 -3.695312 21.632812 -2.304688 19.8125 -1.296875 C 18 -0.296875 15.960938 0.203125 13.703125 0.203125 Z M 13.703125 -1.953125 C 15.503906 -1.953125 17.132812 -2.359375 18.59375 -3.171875 C 20.050781 -3.992188 21.191406 -5.128906 22.015625 -6.578125 C 22.847656 -8.023438 23.265625 -9.640625 23.265625 -11.421875 C 23.265625 -13.203125 22.847656 -14.816406 22.015625 -16.265625 C 21.191406 -17.710938 20.050781 -18.84375 18.59375 -19.65625 C 17.132812 -20.46875 15.503906 -20.875 13.703125 -20.875 C 11.898438 -20.875 10.265625 -20.46875 8.796875 -19.65625 C 7.328125 -18.84375 6.171875 -17.710938 5.328125 -16.265625 C 4.492188 -14.816406 4.078125 -13.203125 4.078125 -11.421875 C 4.078125 -9.640625 4.492188 -8.023438 5.328125 -6.578125 C 6.171875 -5.128906 7.328125 -3.992188 8.796875 -3.171875 C 10.265625 -2.359375 11.898438 -1.953125 13.703125 -1.953125 Z M 13.703125 -1.953125 "/></g></g></g><g fill="#000000" fill-opacity="1"><g transform="translate(94.624439, 184.505669)"><g><path d="M 22.8125 -22.84375 L 22.8125 0 L 20.421875 0 L 20.421875 -10.53125 L 6.140625 -10.53125 L 6.140625 0 L 3.71875 0 L 3.71875 -22.84375 L 6.140625 -22.84375 L 6.140625 -12.65625 L 20.421875 -12.65625 L 20.421875 -22.84375 Z M 22.8125 -22.84375 "/></g></g></g><g fill="#000000" fill-opacity="1"><g transform="translate(131.536313, 184.505669)"><g><path d="M 22.8125 -22.84375 L 22.8125 0 L 20.8125 0 L 6.140625 -18.53125 L 6.140625 0 L 3.71875 0 L 3.71875 -22.84375 L 5.703125 -22.84375 L 20.421875 -4.3125 L 20.421875 -22.84375 Z M 22.8125 -22.84375 "/></g></g></g><g fill="#000000" fill-opacity="1"><g transform="translate(168.426089, 184.505669)"><g/></g></g><g fill="#000000" fill-opacity="1"><g transform="translate(187.374362, 184.505669)"><g/></g></g><g fill="#000000" fill-opacity="1"><g transform="translate(206.322634, 184.505669)"><g/></g></g><g fill="#000000" fill-opacity="1"><g transform="translate(225.270907, 184.505669)"><g/></g></g><g fill="#000000" fill-opacity="1"><g transform="translate(244.219179, 184.505669)"><g/></g></g><g fill="#000000" fill-opacity="1"><g transform="translate(263.167452, 184.505669)"><g/></g></g><g fill="#000000" fill-opacity="1"><g transform="translate(282.115724, 184.505669)"><g/></g></g><g fill="#000000" fill-opacity="1"><g transform="translate(301.063997, 184.505669)"><g/></g></g><g fill="#000000" fill-opacity="1"><g transform="translate(320.012269, 184.505669)"><g/></g></g><g fill="#000000" fill-opacity="1"><g transform="translate(338.960542, 184.505669)"><g/></g></g><g fill="#000000" fill-opacity="1"><g transform="translate(357.908814, 184.505669)"><g/></g></g><g fill="#000000" fill-opacity="1"><g transform="translate(117.988518, 184.930781)"><g/></g></g><g fill="#000000" fill-opacity="1"><g transform="translate(136.902386, 184.930781)"><g/></g></g><g fill="#000000" fill-opacity="1"><g transform="translate(155.816254, 184.930781)"><g/></g></g><g fill="#000000" fill-opacity="1"><g transform="translate(174.730126, 184.930781)"><g/></g></g><g fill="#000000" fill-opacity="1"><g transform="translate(193.638479, 184.930781)"><g><path d="M 12.234375 -22.78125 C 15.140625 -22.78125 17.414062 -22.082031 19.0625 -20.6875 C 20.71875 -19.300781 21.546875 -17.394531 21.546875 -14.96875 C 21.546875 -12.539062 20.71875 -10.632812 19.0625 -9.25 C 17.414062 -7.875 15.140625 -7.1875 12.234375 -7.1875 L 6.125 -7.1875 L 6.125 0 L 3.703125 0 L 3.703125 -22.78125 Z M 12.171875 -9.3125 C 14.429688 -9.3125 16.15625 -9.800781 17.34375 -10.78125 C 18.539062 -11.769531 19.140625 -13.164062 19.140625 -14.96875 C 19.140625 -16.8125 18.539062 -18.226562 17.34375 -19.21875 C 16.15625 -20.207031 14.429688 -20.703125 12.171875 -20.703125 L 6.125 -20.703125 L 6.125 -9.3125 Z M 12.171875 -9.3125 "/></g></g></g><g fill="#000000" fill-opacity="1"><g transform="translate(227.394798, 184.930781)"><g><path d="M 18 -6.09375 L 5.3125 -6.09375 L 2.578125 0 L 0.0625 0 L 10.484375 -22.78125 L 12.859375 -22.78125 L 23.265625 0 L 20.734375 0 Z M 17.125 -8.03125 L 11.65625 -20.28125 L 6.1875 -8.03125 Z M 17.125 -8.03125 "/></g></g></g><g fill="#000000" fill-opacity="1"><g transform="translate(261.118559, 184.930781)"><g><path d="M 12.890625 0.1875 C 9.941406 0.1875 7.640625 -0.65625 5.984375 -2.34375 C 4.335938 -4.03125 3.515625 -6.492188 3.515625 -9.734375 L 3.515625 -22.78125 L 5.921875 -22.78125 L 5.921875 -9.828125 C 5.921875 -7.179688 6.515625 -5.207031 7.703125 -3.90625 C 8.898438 -2.601562 10.628906 -1.953125 12.890625 -1.953125 C 15.171875 -1.953125 16.90625 -2.601562 18.09375 -3.90625 C 19.289062 -5.207031 19.890625 -7.179688 19.890625 -9.828125 L 19.890625 -22.78125 L 22.234375 -22.78125 L 22.234375 -9.734375 C 22.234375 -6.492188 21.410156 -4.03125 19.765625 -2.34375 C 18.128906 -0.65625 15.835938 0.1875 12.890625 0.1875 Z M 12.890625 0.1875 "/></g></g></g><g fill="#000000" fill-opacity="1"><g transform="translate(297.283526, 184.930781)"><g><path d="M 3.703125 -22.78125 L 6.125 -22.78125 L 6.125 -2.078125 L 18.875 -2.078125 L 18.875 0 L 3.703125 0 Z M 3.703125 -22.78125 "/></g></g></g></svg>