<svg width="56" height="56" viewBox="0 0 56 56" fill="none" xmlns="http://www.w3.org/2000/svg">
<path d="M23.1852 43.1111C26.0474 43.1111 28.3704 40.7881 28.3704 37.9259V32.7408H23.1852C20.323 32.7408 18 35.0637 18 37.9259C18 40.7881 20.323 43.1111 23.1852 43.1111Z" fill="#0ACF83"/>
<path d="M18 27.5555C18 24.6933 20.323 22.3703 23.1852 22.3703H28.3704V32.7407H23.1852C20.323 32.7407 18 30.4177 18 27.5555Z" fill="#A259FF"/>
<path d="M18 17.1852C18 14.323 20.323 12 23.1852 12H28.3704V22.3704H23.1852C20.323 22.3704 18 20.0474 18 17.1852Z" fill="#F24E1E"/>
<path d="M28.3704 12H33.5556C36.4178 12 38.7408 14.323 38.7408 17.1852C38.7408 20.0474 36.4178 22.3704 33.5556 22.3704H28.3704V12Z" fill="#FF7262"/>
<path d="M38.7408 27.5555C38.7408 30.4177 36.4178 32.7407 33.5556 32.7407C30.6933 32.7407 28.3704 30.4177 28.3704 27.5555C28.3704 24.6933 30.6933 22.3703 33.5556 22.3703C36.4178 22.3703 38.7408 24.6933 38.7408 27.5555Z" fill="#1ABCFE"/>
</svg>
